HIERARCHY
ROOT hips
{
  OFFSET 0 10.6860622 2.3727825e-15
  CHANNELS 6 Xposition Yposition Zposition Yrotation Xrotation Zrotation
  JOINT leftUpperLeg
  {
    OFFSET 0.6642549969 -0.9402397400000004 0
    CHANNELS 3 Yrotation Xrotation Zrotation
    JOINT leftLowerLeg
    {
      OFFSET 0 -3.997221335632195 0
      CHANNELS 3 Yrotation Xrotation Zrotation
      JOINT leftFoot
      {
        OFFSET -0.13777839790000004 -4.6145792000000005 -0.22186036399999998
        CHANNELS 3 Yrotation Xrotation Zrotation
        JOINT leftToes
        {
          OFFSET -0.03777410834999995 -0.9130806927000008 0.85230013
          CHANNELS 3 Yrotation Xrotation Zrotation
          End Site
          {
            OFFSET -0.03777410834999995 -0.9130806927000008 0.85230013
          }
        }
      }
    }
  }
  JOINT rightUpperLeg
  {
    OFFSET -0.6642778626 -0.9402397400000004 0
    CHANNELS 3 Yrotation Xrotation Zrotation
    JOINT rightLowerLeg
    {
      OFFSET 0 -3.997221452859387 0
      CHANNELS 3 Yrotation Xrotation Zrotation
      JOINT rightFoot
      {
        OFFSET 0.1377926176 -4.6145792000000005 -0.22185782299999995
        CHANNELS 3 Yrotation Xrotation Zrotation
        JOINT rightToes
        {
          OFFSET 0.037780746850000047 -0.9130806927000008 0.85230167
          CHANNELS 3 Yrotation Xrotation Zrotation
          End Site
          {
            OFFSET 0.037780746850000047 -0.9130806927000008 0.85230167
          }
        }
      }
    }
  }
  JOINT spine
  {
    OFFSET 0 0.13988381660000015 0
    CHANNELS 3 Yrotation Xrotation Zrotation
    JOINT chest
    {
      OFFSET 0 0.6191039003973773 0
      CHANNELS 3 Yrotation Xrotation Zrotation
      JOINT upperChest
      {
        OFFSET 0 0.9855186130586943 0
        CHANNELS 3 Yrotation Xrotation Zrotation
        JOINT leftShoulder
        {
          OFFSET 0.1807663869 1.5087829790000005 0
          CHANNELS 3 Yrotation Xrotation Zrotation
          JOINT leftUpperArm
          {
            OFFSET 0.5985063006419806 0 0
            CHANNELS 3 Yrotation Xrotation Zrotation
            JOINT leftLowerArm
            {
              OFFSET 2.2993332369501065 0 0
              CHANNELS 3 Yrotation Xrotation Zrotation
              JOINT leftHand
              {
                OFFSET 2.395047042602395 0 0
                CHANNELS 3 Yrotation Xrotation Zrotation
                JOINT leftIndexProximal
                {
                  OFFSET 0.5766295810000004 0.04556643899499946 0.17265095988184
                  CHANNELS 3 Yrotation Xrotation Zrotation
                  JOINT leftIndexIntermediate
                  {
                    OFFSET 0.2957229000000008 -0.019352197700001517 -0.007932640616999987
                    CHANNELS 3 Yrotation Xrotation Zrotation
                    JOINT leftIndexDistal
                    {
                      OFFSET 0.19008243099999922 -0.012484908149998475 -0.002786250786000012
                      CHANNELS 3 Yrotation Xrotation Zrotation
                      End Site
                      {
                        OFFSET 0.19008243099999922 -0.012484908149998475 -0.002786250786000012
                      }
                    }
                  }
                }
                JOINT leftMiddleProximal
                {
                  OFFSET 0.5834975091000001 0.0524350405149987 0.02204081888183999
                  CHANNELS 3 Yrotation Xrotation Zrotation
                  JOINT leftMiddleIntermediate
                  {
                    OFFSET 0.33880573540000003 -0.019871473270000717 -0.00000971183179999946
                    CHANNELS 3 Yrotation Xrotation Zrotation
                    JOINT leftMiddleDistal
                    {
                      OFFSET 0.20676022730000088 -0.012221336379999448 0.0001471936708000235
                      CHANNELS 3 Yrotation Xrotation Zrotation
                      End Site
                      {
                        OFFSET 0.20676022730000088 -0.012221336379999448 0.0001471936708000235
                      }
                    }
                  }
                }
                JOINT leftLittleProximal
                {
                  OFFSET 0.5344154683999995 -0.012880921405001189 -0.24414037221816004
                  CHANNELS 3 Yrotation Xrotation Zrotation
                  JOINT leftLittleIntermediate
                  {
                    OFFSET 0.21758961730000093 -0.011650919939999227 0.011893592810000034
                    CHANNELS 3 Yrotation Xrotation Zrotation
                    JOINT leftLittleDistal
                    {
                      OFFSET 0.1475273964999999 -0.008152365682999818 0.006001092492999946
                      CHANNELS 3 Yrotation Xrotation Zrotation
                      End Site
                      {
                        OFFSET 0.1475273964999999 -0.008152365682999818 0.006001092492999946
                      }
                    }
                  }
                }
                JOINT leftRingProximal
                {
                  OFFSET 0.5799399463000003 0.026911854694997794 -0.12150566991816003
                  CHANNELS 3 Yrotation Xrotation Zrotation
                  JOINT leftRingIntermediate
                  {
                    OFFSET 0.26167887460000006 -0.013480186499999602 0.010996293000000053
                    CHANNELS 3 Yrotation Xrotation Zrotation
                    JOINT leftRingDistal
                    {
                      OFFSET 0.17667108799999987 -0.008990287899999228 0.0055541023999999065
                      CHANNELS 3 Yrotation Xrotation Zrotation
                      End Site
                      {
                        OFFSET 0.17667108799999987 -0.008990287899999228 0.0055541023999999065
                      }
                    }
                  }
                }
                JOINT leftThumbProximal
                {
                  OFFSET 0.11018806699999972 -0.09448718900500053 0.17047963138184
                  CHANNELS 3 Yrotation Xrotation Zrotation
                  JOINT leftThumbIntermediate
                  {
                    OFFSET 0.31062601459999983 -0.08126270900000132 0.15443142000000007
                    CHANNELS 3 Yrotation Xrotation Zrotation
                    JOINT leftThumbDistal
                    {
                      OFFSET 0.21627175790000086 -0.08833193599999878 0.018771167799999988
                      CHANNELS 3 Yrotation Xrotation Zrotation
                      End Site
                      {
                        OFFSET 0.21627175790000086 -0.08833193599999878 0.018771167799999988
                      }
                    }
                  }
                }
              }
            }
          }
        }
        JOINT neck
        {
          OFFSET 0 1.5463305265074576 0
          CHANNELS 3 Yrotation Xrotation Zrotation
          JOINT head
          {
            OFFSET 0 0.8456443600000344 0
            CHANNELS 3 Yrotation Xrotation Zrotation
            JOINT leftEye
            {
              OFFSET 0.30408573140000006 0.5104519199999995 0.1276382305
              CHANNELS 3 Yrotation Xrotation Zrotation
              End Site
              {
                OFFSET 0.30408573140000006 0.5104519199999995 0.1276382305
              }
            }
            JOINT rightEye
            {
              OFFSET -0.30409491089999996 0.5104519199999995 0.1276379445
              CHANNELS 3 Yrotation Xrotation Zrotation
              End Site
              {
                OFFSET -0.30409491089999996 0.5104519199999995 0.1276379445
              }
            }
            JOINT jaw
            {
              OFFSET -3.155239131000001e-7 -0.11984121820000082 0.60178107
              CHANNELS 3 Yrotation Xrotation Zrotation
              End Site
              {
                OFFSET -3.155239131000001e-7 -0.11984121820000082 0.60178107
              }
            }
          }
        }
        JOINT rightShoulder
        {
          OFFSET -0.1807303465 1.5087829790000005 0
          CHANNELS 3 Yrotation Xrotation Zrotation
          JOINT rightUpperArm
          {
            OFFSET -0.5985063796536958 0 0
            CHANNELS 3 Yrotation Xrotation Zrotation
            JOINT rightLowerArm
            {
              OFFSET -2.2993322059002854 0 0
              CHANNELS 3 Yrotation Xrotation Zrotation
              JOINT rightHand
              {
                OFFSET -2.395045314457259 0 0
                CHANNELS 3 Yrotation Xrotation Zrotation
                JOINT rightIndexProximal
                {
                  OFFSET -0.5764487688300002 0.0441371204405987 0.17361932004999997
                  CHANNELS 3 Yrotation Xrotation Zrotation
                  JOINT rightIndexIntermediate
                  {
                    OFFSET -0.29573011380000047 -0.01934826376999843 -0.007698921482999974
                    CHANNELS 3 Yrotation Xrotation Zrotation
                    JOINT rightIndexDistal
                    {
                      OFFSET -0.19008373999999884 -0.012503266380000655 -0.0026365778999999897
                      CHANNELS 3 Yrotation Xrotation Zrotation
                      End Site
                      {
                        OFFSET -0.19008373999999884 -0.012503266380000655 -0.0026365778999999897
                      }
                    }
                  }
                }
                JOINT rightMiddleProximal
                {
                  OFFSET -0.5834852037300005 0.05211639405060153 0.02307162440000001
                  CHANNELS 3 Yrotation Xrotation Zrotation
                  JOINT rightMiddleIntermediate
                  {
                    OFFSET -0.33880114510000003 -0.019952774050000954 0.0002455003561999819
                    CHANNELS 3 Yrotation Xrotation Zrotation
                    JOINT rightMiddleDistal
                    {
                      OFFSET -0.20675694929999955 -0.012273788999999091 0.00030209124000002766
                      CHANNELS 3 Yrotation Xrotation Zrotation
                      End Site
                      {
                        OFFSET -0.20675694929999955 -0.012273788999999091 0.00030209124000002766
                      }
                    }
                  }
                }
                JOINT rightLittleProximal
                {
                  OFFSET -0.5346811737299992 -0.011214256288399227 -0.24363941305000003
                  CHANNELS 3 Yrotation Xrotation Zrotation
                  JOINT rightLittleIntermediate
                  {
                    OFFSET -0.21757715980000092 -0.011771559690000988 0.01201554387
                    CHANNELS 3 Yrotation Xrotation Zrotation
                    JOINT rightLittleDistal
                    {
                      OFFSET -0.1475201849000004 -0.00822055339600003 0.006082065407000015
                      CHANNELS 3 Yrotation Xrotation Zrotation
                      End Site
                      {
                        OFFSET -0.1475201849000004 -0.00822055339600003 0.006082065407000015
                      }
                    }
                  }
                }
                JOINT rightRingProximal
                {
                  OFFSET -0.5800810755299999 0.027657985680600072 -0.12066365025000003
                  CHANNELS 3 Yrotation Xrotation Zrotation
                  JOINT rightRingIntermediate
                  {
                    OFFSET -0.26166445029999974 -0.013623118409999302 0.011164098990000045
                    CHANNELS 3 Yrotation Xrotation Zrotation
                    JOINT rightRingDistal
                    {
                      OFFSET -0.17666387530000027 -0.009072900100000503 0.005668185599999959
                      CHANNELS 3 Yrotation Xrotation Zrotation
                      End Site
                      {
                        OFFSET -0.17666387530000027 -0.009072900100000503 0.005668185599999959
                      }
                    }
                  }
                }
                JOINT rightThumbProximal
                {
                  OFFSET -0.10997596379000074 -0.09577489355940072 0.16989765924999997
                  CHANNELS 3 Yrotation Xrotation Zrotation
                  JOINT rightThumbIntermediate
                  {
                    OFFSET -0.31036620999999986 -0.08229339117999834 0.15440884469999996
                    CHANNELS 3 Yrotation Xrotation Zrotation
                    JOINT rightThumbDistal
                    {
                      OFFSET -0.21631306399999906 -0.08825326400000111 0.018656797720000014
                      CHANNELS 3 Yrotation Xrotation Zrotation
                      End Site
                      {
                        OFFSET -0.21631306399999906 -0.08825326400000111 0.018656797720000014
                      }
                    }
                  }
                }
              }
            }
          }
        }
      }
    }
  }
}
MOTION
Frames: 9
Frame Time: 0.03333333333333333
0 11.682712981546562 0 0 0 0 0 0 -5.826343164929014 -0.3712483961610101 -3.6333298826370974 5.838118207697276 0 0 0 0 0 0 0 0 5.826343164929014 0.3712483961610101 -3.6333298826370974 -5.838118207697276 0 0 0 0 0 0 0 -4.610651315171937 0 0 3.0831277533083026 0 0 0 0 0 1.5275236235667615 0 0 0 0 0 0 0 0 0 0 0 0 0 0 0 0 0 0 0 0 0 0 0 0 0 0 0 0 0 0 0 0 0 0 0 0 0 0 0 0 0 0 0 0 0 0 0 0 0 0 0 0 0 0 0 0 1.5275236235667615 0 0 0 0 0 0 0 0 0 0 0 0 0 0 1.5275236235667615 0 0 0 0 0 0 0 0 0 0 0 0 0 0 0 0 0 0 0 0 0 0 0 0 0 0 0 0 0 0 0 0 0 0 0 0 0 0 0 0 0 0 0 0 0 0 0 0 0 0 0 0 0 0 0
-5.368352687514304 -7.925558015561975 -1.6115552200350978 179.99999890537066 -23.999190603730224 -179.99999655478825 179.15246291011886 -48.44876544328197 -160.77110102735182 -0.6244594969741671 7.422638100910147 14.984677192086739 -3.7335996485913694 30.200476947169037 0.2407211907627505 0 0 0 178.98774102146828 -36.57767240158221 162.755113310055 4.8177063492022105 33.93769657125448 -13.64156285823337 -1.879052125256072 19.023199785724877 -5.627388037673705 0 0 0 -0.032538396152915754 28.922325531216252 -0.040008234797700576 -0.6733219165303832 24.444431659304964 -0.4225143291424449 0 0 0 5.30922262257207 1.8398425692698195 1.684289533966155 1.6262283185724504 19.58075908772666 -52.60458141918664 -26.66369505083889 34.14554555947853 -5.735936519755478 18.429066556249403 43.88410920434404 -6.112607192031042 0 0 0 0 0 0 0 0 0 0 0 0 0 0 0 0 0 0 0 0 0 0 0 0 0 0 0 0 0 0 0 0 0 0 0 0 0 0 0 0 0 0 0 0 0 0 19.52587217553456 0 0 8.99856659418915 0 0 0 0 0 0 0 0 0 0 -5.312735449946192 1.8396245311560888 -1.6878738987191444 -1.6301964324195586 19.582281473737517 52.600079402859976 26.6584238757384 34.14656892081294 5.73077178188978 -18.43537698219267 43.88370171239729 6.106332941616646 0 0 0 0 0 0 0 0 0 0 0 0 0 0 0 0 0 0 0 0 0 0 0 0 0 0 0 0 0 0 0 0 0 0 0 0 0 0 0 0 0 0 0 0 0
-5.368352687514304 -7.924393595692914 -1.6165266500765 179.999998907949 -23.69351181440781 -179.99999656116586 178.99862620778433 -48.66470431197265 -160.72361319523296 -0.6244594969741671 7.422638100910147 14.984677192086739 -3.8675442724400964 30.134403735072713 0.203294650072204 0 0 0 179.11766711261492 -36.83119905497189 162.66564598694515 4.8177063492022105 33.93769657125448 -13.64156285823337 -1.7691589999769004 18.99008479626745 -5.646674944292506 0 0 0 -0.032538396152915754 28.922325531216252 -0.040008234797700576 -0.6785864922471934 24.997342123115153 -0.4344533916040996 0 0 0 5.133679731209905 1.662796000088275 2.064227750874778 1.6392384905200341 19.625349215131347 -52.888841405838605 -27.138433551262008 34.107025842682525 -6.071887914806249 18.532371147771435 43.74020080863673 -6.163644906175944 0 0 0 0 0 0 0 0 0 0 0 0 0 0 0 0 0 0 0 0 0 0 0 0 0 0 0 0 0 0 0 0 0 0 0 0 0 0 0 0 0 0 0 0 0 0 19.747930773478487 0 0 9.248345239047843 0 0 0 0 0 0 0 0 0 0 -5.134143021286147 1.6663107617947148 -2.0811552197961762 -1.6541184176345765 19.63517883261818 52.90066978335318 27.106574266867575 34.104072714768726 6.10284082419852 -18.554717294533123 43.740938208148464 6.14270535169735 0 0 0 0 0 0 0 0 0 0 0 0 0 0 0 0 0 0 0 0 0 0 0 0 0 0 0 0 0 0 0 0 0 0 0 0 0 0 0 0 0 0 0 0 0
-5.368352687514304 -7.923229175823853 -1.6214980801179024 179.99999891048424 -23.387832631327953 -179.99999656751345 178.8438545902734 -48.88055975020731 -160.67503880920464 -0.6244594969741671 7.422638100910147 14.984677192086739 -4.001349489246775 30.068252393389173 0.16607172005558402 0 0 0 179.24852237734152 -37.08456267340756 162.57515933752916 4.8177063492022105 33.93769657125448 -13.641561858180747 -1.659275862062674 18.95700347406223 -5.66602492621351 0 0 0 -0.032538396152915754 28.922325531216252 -0.040008234797700576 -0.6840027080348239 25.55025340389035 -0.44650328840967823 0 0 0 4.956980875353977 1.4869175460702544 2.4446749144965754 1.6520171613202446 19.66999886753167 -53.173169717710294 -27.61266623261074 34.06620262050573 -6.40728477619499 18.635604600090808 43.59635454595115 -6.21491848373743 0 0 0 0 0 0 0 0 0 0 0 0 0 0 0 0 0 0 0 0 0 0 0 0 0 0 0 0 0 0 0 0 0 0 0 0 0 0 0 0 0 0 0 0 0 0 19.969989909771456 0 0 9.498123861253262 0 0 0 0 0 0 0 0 0 0 -4.95437936725922 1.494227147981017 -2.4749425211591727 -1.6777530026286251 19.688191553638962 53.20133281528642 27.554152851539097 34.059173940196224 6.474304686022653 -18.673898394167495 43.59822665887513 6.1794011320846165 0 0 0 0 0 0 0 0 0 0 0 0 0 0 0 0 0 0 0 0 0 0 0 0 0 0 0 0 0 0 0 0 0 0 0 0 0 0 0 0 0 0 0 0 0
-5.368352687514304 -7.920900067693459 -1.6314409402007075 179.9999989154297 -22.77618475215379 -179.99999658012774 178.53134814000262 -49.31213311973268 -160.5745477819441 -0.6244594969741671 7.422638100910147 14.984677192086739 -4.268564688218856 29.935699831652638 0.09222976625171485 0 0 0 179.51317655617393 -37.5909865864877 162.3910033310912 4.8177063492022105 33.93769657125448 -13.64156285823337 -1.4395236674861254 18.890943512001325 -5.7049162509226905 0 0 0 -0.032538396152915754 28.922325531216252 -0.040008234797700576 -0.6953209642410044 26.657727229441065 -0.47098725731223806 0 0 0 4.599762591156553 1.1383450171290295 3.2078972893078253 1.6768919726107068 19.75950608504855 -53.7422561129821 -28.56025533439525 33.97758905725022 -7.0768150100821465 18.84190979382552 43.308796106525506 -6.318188896251724 0 0 0 0 0 0 0 0 0 0 0 0 0 0 0 0 0 0 0 0 0 0 0 0 0 0 0 0 0 0 0 0 0 0 0 0 0 0 0 0 0 0 0 0 0 0 20.414212468046895 0 0 9.997830965119697 0 0 0 0 0 0 0 0 0 0 -4.590965073767274 1.1534251419206532 -3.2649030610634657 -1.7241822747295923 19.7946199807471 53.803185539234676 28.448144702625438 33.96210580119369 7.215854632926164 -18.911845265937824 43.31291688263752 6.253772373447757 0 0 0 0 0 0 0 0 0 0 0 0 0 0 0 0 0 0 0 0 0 0 0 0 0 0 0 0 0 0 0 0 0 0 0 0 0 0 0 0 0 0 0 0 0
-5.368352687514304 -7.919735647824398 -1.6364125044382458 179.9999989178405 -22.47023697604081 -179.99999658639473 178.3735839885199 -49.52782445160583 -160.52259233716293 -0.6244594969741671 7.422638100910147 14.984677192086739 -4.401977412850004 29.86931255163846 0.055609911727780445 0 0 0 179.6469970505104 -37.84402018333926 162.2973191939647 4.8177063492022105 33.93769657125448 -13.64156285823337 -1.3296554550659994 18.857963005224814 -5.724457674637443 0 0 0 -0.032538396152915754 28.922325531216252 -0.040008234797700576 -0.7012292258689548 27.21219304651685 -0.4834285272121393 0 0 0 4.419272529005411 0.9656966923205484 3.59063269789473 1.6889834854608974 19.80436563614973 -54.027014300342756 -29.033510090972374 33.92982239288462 -7.410857163951099 18.944982678900438 43.16510022158972 -6.370184305323446 0 0 0 0 0 0 0 0 0 0 0 0 0 0 0 0 0 0 0 0 0 0 0 0 0 0 0 0 0 0 0 0 0 0 0 0 0 0 0 0 0 0 0 0 0 0 20.63637193547521 0 0 10.24775270414661 0 0 0 0 0 0 0 0 0 0 -4.407344714481914 0.9847523720667443 -3.6610320511790757 -1.74697359242024 19.84802333980054 54.104345821650526 28.894449215319444 33.9099446685776 7.585836561068176 -19.030611099588768 43.17032104568689 6.291444125347619 0 0 0 0 0 0 0 0 0 0 0 0 0 0 0 0 0 0 0 0 0 0 0 0 0 0 0 0 0 0 0 0 0 0 0 0 0 0 0 0 0 0 0 0 0
-5.368352687514304 -7.9185712279553355 -1.641384068675784 179.99999892020992 -22.164290440669216 -179.9999965926346 178.2148173036983 -49.74341996683557 -160.46948967731313 -0.6244594969741671 7.422638100910147 14.984677192086739 -4.535252119872405 29.80284938286792 0.01919264042544906 0 0 0 179.78180502936965 -38.09688345077522 162.20256048162602 4.8177063492022105 33.93769657125448 -13.64156285823337 -1.2197969313869697 18.825017846133534 -5.744062066100863 0 0 0 -0.032538396152915754 28.922325531216252 -0.040008234797700576 -0.707303499907954 27.766658755437014 -0.4959972148232581 0 0 0 4.237641349508293 0.7942585111036253 3.973892994330181 1.7008412976051541 19.8492814084177 -54.31184436467493 -29.506150389271614 33.87977066503969 -7.744220638218284 19.047992404939492 43.02147529773732 -6.422411592740678 0 0 0 0 0 0 0 0 0 0 0 0 0 0 0 0 0 0 0 0 0 0 0 0 0 0 0 0 0 0 0 0 0 0 0 0 0 0 0 0 0 0 0 0 0 0 20.85853102397062 0 0 10.497673712964737 0 0 0 0 0 0 0 0 0 0 -4.2225706433657635 0.8173537182280864 -4.057681326726813 -1.7694736646705154 19.901537288294715 54.40558498385897 29.340057736541088 33.855393223291756 7.955086271569689 -19.149230215075058 43.027777050548 6.329431960097931 0 0 0 0 0 0 0 0 0 0 0 0 0 0 0 0 0 0 0 0 0 0 0 0 0 0 0 0 0 0 0 0 0 0 0 0 0 0 0 0 0 0 0 0 0
-5.368352687514304 -7.916242119824941 -1.65132719715086 180 -21.552199266453346 -179.99999699999998 177.8941337337548 -50.17445336963041 -160.35974717682603 -0.6244595507827567 7.422637239921587 14.984677192086739 -4.801406514400185 29.669691695892514 -0.053039768116044855 0 0 0 -179.94548122962206 -38.60221224082627 162.00970321188564 4.8177063492022105 33.93769657125448 -13.64156285823337 -1.000096758103364 18.75923164101726 -5.783461266092318 0 0 0 -0.032538396152915754 28.92232358034934 -0.04000822826293014 -0.7199784291102416 28.87683933500932 -0.5215631914750625 0 0 0 3.870689852618938 0.4547893997259009 4.74259474813804 1.7238583382959756 19.939300082370544 -54.88189041813377 -30.450038794945247 33.77276237840647 -8.409185599409186 19.25386568123726 42.734381615108155 -6.52757105981713 0 0 0 0 0 0 0 0 0 0 0 0 0 0 0 0 0 0 0 0 0 0 0 0 0 0 0 0 0 0 0 0 0 0 0 0 0 0 0 0 0 0 0 0 0 0 21.30292927503441 0 0 10.99763000029965 0 0 0 0 0 0 0 0 0 0 -3.8492827669414877 0.4861508974290327 -4.853199904809391 -1.8136086459125889 20.008941203425813 55.00853807841882 30.229603251041535 33.73910073121109 8.69169079491388 -19.38606899842701 42.74282103652112 6.406358880038066 0 0 0 0 0 0 0 0 0 0 0 0 0 0 0 0 0 0 0 0 0 0 0 0 0 0 0 0 0 0 0 0 0 0 0 0 0 0 0 0 0 0 0 0 0
-5.368352687514304 -7.915077834152016 -1.6562986271922624 -179.9999999985668 -21.246063731631295 -179.99999750051938 177.73218200256395 -50.389847778515694 -160.3030670296768 -0.6244595507827567 7.422638100910147 14.984677192086739 -4.934288487321035 29.603005160433153 -0.08885551147998044 0 0 0 -179.80754970064683 -38.854662937731845 161.9115823703536 4.8177063492022105 33.93769657125448 -13.64156382905836 -0.8902555758706711 18.726390532657714 -5.80325606834428 0 0 0 -0.032538396152915754 28.92232358034934 -0.04000822826293014 -0.7265872005957853 29.432451162447155 -0.5345678340234451 0 0 0 3.685399839102623 0.2868016146802849 5.127994737942334 1.735017806540179 19.98440132913974 -55.16709838871628 -30.921180073268303 33.71582256776556 -8.740693276612037 19.356724452652223 42.59091961695579 -6.5804998479092305 0 0 0 0 0 0 0 0 0 0 0 0 0 0 0 0 0 0 0 0 0 0 0 0 0 0 0 0 0 0 0 0 0 0 0 0 0 0 0 0 0 0 0 0 0 0 21.52516253261679 0 0 11.247654979967104 0 0 0 0 0 0 0 0 0 0 -3.660800390561265 0.322391966110109 -5.252021220133558 -1.8352388779718978 20.062824249140853 55.31023656693121 30.673421424339413 33.67736521478824 9.058944813295664 -19.504293315528145 42.60041129628749 6.445297277347652 0 0 0 0 0 0 0 0 0 0 0 0 0 0 0 0 0 0 0 0 0 0 0 0 0 0 0 0 0 0 0 0 0 0 0 0 0 0 0 0 0 0 0 0 0
